HIERARCHY
ROOT Hips
{
  OFFSET 13.6774 106.653 -34.4427
  CHANNELS 6 Xposition Yposition Zposition Zrotation Xrotation Yrotation
  JOINT ToSpine
  {
    OFFSET -2.69724 7.43032 -0.144315
    CHANNELS 3 Zrotation Xrotation Yrotation
    JOINT Spine
    {
      OFFSET -0.0310711 10.7595 1.96963
      CHANNELS 3 Zrotation Xrotation Yrotation
      JOINT Spine1
      {
        OFFSET 19.9056 3.91189 0.764692
        CHANNELS 3 Zrotation Xrotation Yrotation
        JOINT Neck
        {
          OFFSET 25.9749 7.03908 -0.130764
          CHANNELS 3 Zrotation Xrotation Yrotation
          JOINT Head
          {
            OFFSET 9.52751 0.295786 -0.907742
            CHANNELS 3 Zrotation Xrotation Yrotation
            End Site
            {
              OFFSET 16.4037 0.713936 2.7358
            }
          }
        }
        JOINT LeftShoulder
        {
          OFFSET 17.7449 4.33886 11.7777
          CHANNELS 3 Zrotation Xrotation Yrotation
          JOINT LeftArm
          {
            OFFSET 0.911315 1.27913 9.80584
            CHANNELS 3 Zrotation Xrotation Yrotation
            JOINT LeftForeArm
            {
              OFFSET 28.6126 1.18197 -3.53199
              CHANNELS 3 Zrotation Xrotation Yrotation
              JOINT LeftHand
              {
                OFFSET 27.5088 0.0218783 0.327423
                CHANNELS 3 Zrotation Xrotation Yrotation
                End Site
                {
                  OFFSET 18.6038 -0.000155887 0.382096
                }
              }
            }
          }
        }
        JOINT RightShoulder
        {
          OFFSET 17.1009 2.89543 -12.2328
          CHANNELS 3 Zrotation Xrotation Yrotation
          JOINT RightArm
          {
            OFFSET 1.4228 0.178766 -10.211
            CHANNELS 3 Zrotation Xrotation Yrotation
            JOINT RightForeArm
            {
              OFFSET 28.733 1.87905 2.64907
              CHANNELS 3 Zrotation Xrotation Yrotation
              JOINT RightHand
              {
                OFFSET 27.4588 0.290562 -0.101845
                CHANNELS 3 Zrotation Xrotation Yrotation
                End Site
                {
                  OFFSET 17.8396 -0.255518 -0.000602873
                }
              }
            }
          }
        }
      }
    }
  }
  JOINT LeftUpLeg
  {
    OFFSET -5.61296 -2.22332 -10.2353
    CHANNELS 3 Zrotation Xrotation Yrotation
    JOINT LeftLeg
    {
      OFFSET 2.56703 -44.7417 -7.93097
      CHANNELS 3 Zrotation Xrotation Yrotation
      JOINT LeftFoot
      {
        OFFSET 3.16933 -46.5642 -3.96578
        CHANNELS 3 Zrotation Xrotation Yrotation
        JOINT LeftToeBase
        {
          OFFSET 0.346054 -6.02161 12.8035
          CHANNELS 3 Zrotation Xrotation Yrotation
          End Site
          {
            OFFSET 0.134235 -1.35082 5.13018
          }
        }
      }
    }
  }
  JOINT RightUpLeg
  {
    OFFSET -5.7928 -1.72406 10.6446
    CHANNELS 3 Zrotation Xrotation Yrotation
    JOINT RightLeg
    {
      OFFSET -2.57161 -44.7178 -7.85259
      CHANNELS 3 Zrotation Xrotation Yrotation
      JOINT RightFoot
      {
        OFFSET -3.10148 -46.5936 -4.03391
        CHANNELS 3 Zrotation Xrotation Yrotation
        JOINT RightToeBase
        {
          OFFSET -0.0828122 -6.13587 12.8035
          CHANNELS 3 Zrotation Xrotation Yrotation
          End Site
          {
            OFFSET -0.131328 -1.35082 5.13018
          }
        }
      }
    }
  }
}
MOTION
Frames: 19
Frame Time: 0.03333333333333333
0.0000 93.1000 0.0000 73.7392 -34.0076 -1.9699 -70.9228 -0.0357 88.0942 82.6681 71.8717 -0.4845 3.6889 22.1519 -1.5994 -112.9430 21.6003 160.9153 178.1418 65.3989 -131.6553 0.7717 -9.7874 -15.5118 -44.1637 25.6682 -123.6029 30.2277 -6.8681 -100.1362 -0.0619 0.0199 -0.1900 -0.2354 -0.3522 -4.8950 -131.4532 5.1805 91.2513 46.6454 -3.6511 85.9737 0.0405 -0.1700 0.1829 -47.8004 18.1481 96.2597 -5.3745 55.2067 -7.9253 1.1544 -22.0587 -2.2618 4.4823 -12.8326 18.5341 -45.2937 -12.0845 79.4254 1.7156 26.9938 0.9568 -2.6560 8.3724 -0.1514 0.2012 -9.1334 1.3939 
0.0000 93.1000 0.0000 72.4600 -34.0575 -4.2314 -70.9451 -0.0209 88.0917 86.2475 71.5449 -2.1840 2.8963 22.5022 -2.6616 -112.2972 21.1638 161.3602 178.7274 65.3216 -131.9031 0.8011 -9.5854 -14.1979 -44.5753 25.6732 -124.9202 29.7251 -6.0366 -99.7311 0.1158 0.0456 -0.3801 -0.2183 0.3948 -3.4635 -133.8966 2.7041 91.2602 43.1323 -3.0835 86.2620 -0.0637 -0.0795 0.3420 -48.2484 18.3210 97.0162 -4.9444 55.4279 -8.5445 0.0811 -21.3553 -2.1978 4.5358 -13.0925 19.7925 -44.0307 -12.7941 79.6695 1.4688 27.7951 4.7587 -5.1395 8.0676 0.2127 0.6224 -10.7575 1.8490 
0.0000 93.1000 0.0000 72.5421 -34.0088 -3.3156 -70.9577 0.0083 88.0853 86.8995 71.1466 -1.6621 3.2183 22.5841 -3.8526 -112.1105 21.3664 161.6297 179.2114 65.5019 -132.0293 0.7583 -9.5283 -13.7054 -46.2534 25.6970 -126.8713 28.7081 -5.8495 -98.9383 0.1901 0.1823 -0.4049 -0.1190 0.2194 -3.3190 -136.4673 -3.1919 93.3025 35.3637 -3.1566 87.3760 -0.1508 0.1086 0.1572 -48.4193 18.0443 97.3147 -4.6196 53.7261 -8.3560 -0.2772 -21.5582 -2.3233 4.0513 -12.7323 18.9795 -42.9251 -13.8558 80.5226 1.9165 27.3875 6.8505 -5.1046 8.9300 0.2243 0.5972 -10.5170 0.0966 
0.0000 93.1000 0.0000 72.1384 -33.8105 -4.7846 -70.9779 0.0741 88.0652 81.3454 71.2832 0.9709 4.0461 22.0037 -2.5996 -112.9742 22.2814 159.6720 178.3178 66.2297 -132.9990 0.4068 -10.4269 -15.0277 -49.8035 24.8683 -130.0873 24.8361 -4.6505 -98.4871 0.3873 0.4775 -0.2787 -0.0638 0.3468 -2.2637 -139.6957 -7.3086 92.8802 19.6790 -1.5191 89.7620 -0.3876 0.5292 -0.0670 -49.5494 17.3732 97.1677 -5.1519 52.5259 -8.2912 -1.2453 -21.3344 -2.5699 4.0742 -12.9372 18.4127 -43.3510 -15.3786 81.1429 0.2417 25.4066 4.2662 -5.2809 10.8111 0.1938 -0.3058 -5.7138 0.9664 
0.0000 93.1000 0.0000 71.4769 -32.9458 -4.2275 -71.0180 -0.0491 88.0771 79.0709 70.7051 3.6719 4.3773 21.8232 -2.8453 -112.1650 23.4699 158.8986 177.1346 67.5155 -132.9729 0.9611 -11.3228 -15.6819 -51.5538 23.8954 -135.1396 21.1479 -3.8492 -97.2769 -0.1506 -0.2485 0.2686 -0.0619 0.9344 0.2589 -140.7441 -12.6791 91.3329 1.8110 -0.9286 94.0489 0.1110 -0.1172 0.2280 -49.5572 17.0665 97.1311 -4.6300 50.2450 -9.3614 -1.4528 -19.8878 -1.8265 4.1705 -13.5873 17.5020 -44.1330 -16.7524 80.1735 0.5455 22.5532 1.1179 -5.5642 13.1653 -0.5596 -0.3508 -0.5646 -1.2661 
0.0000 93.1000 0.0000 71.5280 -32.0808 -5.2783 -71.0455 0.0017 88.0751 75.9780 70.6501 7.5416 5.4197 21.7115 -2.5188 -113.9131 25.0485 157.9374 176.6530 68.8654 -135.1740 0.4901 -12.2613 -16.6469 -55.1610 24.1937 -139.9946 18.6588 -2.6145 -95.5695 -0.1202 -0.1093 0.1444 -0.2518 2.6268 4.3898 -138.4367 -16.8721 90.9431 -9.6207 -1.9702 98.7969 0.0245 0.1780 -0.0394 -50.7275 17.0914 96.8218 -3.8952 48.0962 -9.2346 -1.9140 -18.6725 -1.8767 4.7328 -12.9079 15.8477 -45.2086 -17.4054 79.3354 1.0714 19.8692 1.6785 -4.3085 16.1021 -0.7866 -0.1983 -3.5028 1.2705 
0.0000 93.1000 0.0000 70.4010 -31.1181 -6.3362 -71.0551 -0.0155 88.0998 70.7308 70.7262 11.8174 6.8572 21.6937 -1.8511 -116.0589 26.5716 157.5833 176.1068 69.9295 -136.6868 0.6064 -12.9274 -18.0622 -58.4031 23.9713 -143.8560 15.1779 -1.9496 -95.6030 0.0790 -0.2582 0.2335 -0.5209 4.1693 10.6515 -134.8639 -17.5996 92.2791 -6.4485 -1.6560 102.9956 0.4167 0.0215 0.1168 -51.5150 16.3509 96.2293 -4.3279 45.3270 -9.2043 -2.8359 -16.7833 -1.3675 4.7431 -13.7928 15.1087 -44.7492 -17.5836 79.0377 0.3275 20.4134 4.1987 -4.9336 17.1595 -0.7400 1.2518 -11.7058 2.5413 
0.0000 93.1000 0.0000 70.6681 -29.8751 -6.2868 -71.0355 0.0327 88.1018 65.9714 70.3735 14.9878 7.6502 21.0467 0.1298 -118.9007 29.1882 157.3643 173.7610 71.2970 -137.2009 0.3512 -13.6428 -19.3437 -60.5049 25.3195 -147.4513 13.3279 -2.0709 -95.8648 -0.0035 -0.0154 0.3399 -0.9396 4.8285 17.8823 -131.2353 -17.5681 94.3969 2.9516 1.2242 106.2868 0.0339 0.2334 0.0793 -52.6464 16.4490 95.5940 -3.8655 43.1706 -8.7729 -2.7982 -14.0549 -1.3076 5.1391 -14.2296 14.0270 -44.7782 -16.9943 79.1777 -0.2430 21.5964 4.1837 -5.8483 15.8474 -0.3395 1.1499 -16.7830 4.5454 
0.0000 93.1000 0.0000 69.7716 -28.8189 -6.6407 -71.0292 -0.0017 88.1059 67.0588 69.9126 13.5695 6.7156 20.1210 1.5237 -122.1015 30.7144 157.6888 172.6460 72.7157 -138.0396 0.3798 -14.3711 -19.1475 -60.8267 27.7709 -150.0650 14.2312 -2.0124 -96.0823 -0.3635 -0.2020 0.5387 -1.4830 5.4826 26.3305 -126.4008 -15.5564 97.3912 9.4937 3.1066 106.4482 -0.1032 -0.0261 0.2050 -53.1654 17.5070 94.8075 -3.2735 41.1198 -8.2615 -2.7604 -10.9714 -0.8954 6.1286 -14.6911 13.0511 -45.6669 -16.7917 78.9870 1.2159 22.0197 2.7881 -3.6392 13.2835 -0.5958 1.2037 -14.9282 4.4002 
0.0000 93.1000 0.0000 69.6465 -27.8907 -6.5074 -71.0389 0.0393 88.1062 68.1725 69.9404 12.9300 6.5862 19.2260 2.4245 -123.7064 32.2395 158.6807 169.6692 74.3320 -139.6308 0.1859 -14.0822 -19.5069 -61.7970 29.8527 -151.9999 15.9005 -1.9726 -96.5697 -0.1265 -0.0702 0.2264 -2.0683 5.9259 34.8340 -124.6854 -11.1925 97.8357 12.9069 3.8541 105.4375 -0.1614 0.0995 -0.0365 -53.7226 18.2902 95.1058 -2.8477 39.8410 -8.4853 -3.4069 -8.6063 -0.8421 5.9884 -14.7242 12.8263 -46.0340 -16.0194 78.2187 1.1495 22.1411 -2.8752 -4.2704 10.4534 -0.2405 0.3241 -13.2653 7.8576 
0.0000 93.1000 0.0000 69.4370 -27.7401 -7.2480 -71.0399 0.0731 88.1060 71.3641 70.2168 10.3092 5.9206 19.1245 3.8891 -126.0468 33.7910 159.8047 166.8432 75.9152 -137.6031 0.0125 -14.3010 -19.9889 -62.5933 30.9555 -151.3767 17.0056 -2.7190 -97.7999 -0.0220 0.0843 -0.1074 -2.3483 5.5805 40.5794 -123.7768 -8.7229 97.6860 14.1832 3.3730 103.2632 -0.4213 0.2292 -0.2684 -52.7274 20.0920 96.0110 -2.9196 39.7948 -8.1333 -4.0275 -6.8793 -0.8162 4.7986 -13.2321 12.9803 -45.7609 -15.4056 78.2991 2.0826 23.2098 -5.4066 -5.1358 7.4352 0.0613 0.1663 -11.9601 5.6753 
0.0000 93.1000 0.0000 69.6158 -26.6050 -7.0340 -71.0408 0.1752 88.0894 74.2940 70.0695 7.0682 5.2911 18.6716 5.0685 -127.8708 34.9074 159.2103 166.3974 76.6606 -138.8705 -0.4784 -14.3648 -20.0477 -63.5762 31.5697 -149.0904 18.8836 -4.1424 -99.1739 -0.0243 0.5862 -0.6741 -2.5803 5.7675 45.0889 -124.2958 -6.8671 96.6656 15.3533 2.5832 99.8768 -0.7148 0.7831 -0.5398 -50.8830 21.3880 96.5444 -2.4008 41.2591 -4.6547 -4.1810 -5.5212 -1.2300 3.1147 -10.5085 11.9503 -46.0487 -15.2453 77.8400 2.0030 24.7983 -5.0406 -6.5406 5.0763 0.6839 -0.2942 -11.0032 7.6309 
0.0000 93.1000 0.0000 69.4070 -26.3139 -6.6167 -71.0444 0.0598 88.1025 78.7652 70.3536 3.1043 4.2082 18.8744 5.3707 -127.0896 35.2745 156.9944 171.2186 77.4355 -143.0984 0.1642 -14.0247 -20.2211 -64.8304 31.7203 -148.0407 20.5752 -4.1156 -99.6103 0.1118 0.0004 -0.2036 -2.7466 5.0633 48.1230 -126.0410 -4.6359 95.8900 16.8985 1.6830 95.5414 -0.1453 0.1170 -0.0961 -48.7308 22.1824 97.7233 -2.4062 43.3972 -0.7869 -3.6447 -4.5708 -0.8379 1.8235 -9.2914 13.3219 -45.2170 -14.2684 77.5469 1.9716 25.8796 -5.2414 -6.2897 3.2498 0.5721 0.1453 -9.6393 6.3000 
0.0000 93.1000 0.0000 69.3443 -25.3933 -7.2583 -71.0420 -0.0185 88.1171 81.8704 70.9561 1.2975 3.1944 19.1366 6.1382 -125.8763 35.0852 156.5301 169.8580 78.1418 -139.0110 0.4784 -13.9669 -20.3578 -64.9031 32.0214 -145.8669 22.1301 -4.9755 -100.2104 -0.3475 -0.3351 0.2532 -2.8612 5.0128 49.3976 -127.1814 -2.7324 95.1260 18.7440 0.6157 91.7984 0.0781 -0.2928 0.3771 -46.4896 22.0878 98.9725 -3.5886 45.4042 1.5711 -3.1198 -6.5946 -0.8046 1.1438 -8.2370 16.4990 -44.9953 -14.0866 77.5284 2.0447 27.0720 -6.2375 -7.0112 1.0610 0.7792 -0.1414 -9.2599 7.2959 
0.0000 93.1000 0.0000 69.1342 -24.6648 -7.7562 -71.0450 -0.0593 88.1177 83.1500 71.2630 -0.1454 3.0841 18.8943 7.1185 -124.0608 34.9162 155.3758 171.6032 78.8304 -139.4285 0.5528 -14.0577 -21.0173 -64.8988 32.5143 -145.1664 23.1656 -5.1070 -101.2084 -0.2442 -0.5587 0.2508 -2.9291 5.1141 50.1211 -128.1846 -0.4946 95.0486 19.8594 -1.1527 88.6898 0.3545 -0.5175 0.3271 -45.0338 21.2745 99.7347 -3.9996 46.2803 -1.6018 -2.6608 -10.1691 -1.0201 2.9401 -11.0665 16.7416 -43.9301 -14.0875 77.1553 1.5220 28.2379 -6.5795 -6.9712 0.1029 0.7739 -0.1012 -9.2928 7.9025 
0.0000 93.1000 0.0000 69.2018 -24.2659 -7.3328 -71.0281 -0.0138 88.0728 85.0491 71.0254 -1.4372 2.6952 18.3285 8.1284 -124.3989 35.0644 155.0001 175.3071 78.7067 -145.4881 0.2520 -13.9366 -21.4536 -64.6238 32.6783 -143.9667 23.1842 -5.4326 -101.1099 -0.2655 -0.2380 0.2396 -3.0496 5.5827 49.0862 -129.0155 1.1861 95.4722 19.9699 -1.8002 84.7391 0.3745 -0.1806 0.4367 -44.6885 19.3667 99.7504 -3.8466 46.2307 -9.1275 -4.1687 -10.9639 -1.1828 5.9428 -16.2922 16.4894 -43.4621 -15.2736 76.6396 1.5099 28.8875 -5.2463 -7.6719 -0.1045 1.0174 0.0385 -9.4017 5.4380 
0.0000 93.1000 0.0000 69.3833 -24.6348 -7.0164 -71.0147 -0.0226 88.0640 83.9949 71.0966 -1.1883 2.8135 18.3183 8.3077 -123.0143 35.0647 156.7054 170.8218 78.4515 -139.5495 0.2373 -13.9072 -22.1567 -64.4732 32.7726 -142.7567 23.2742 -5.9535 -101.2078 -0.1959 -0.2413 0.3104 -3.0898 5.6726 47.9510 -130.1815 1.4566 96.2692 20.5540 -3.9933 80.0784 0.4022 -0.1758 0.4645 -44.6286 17.3894 98.7076 -4.0154 46.4448 -14.2701 -4.7805 -11.6056 -1.0749 6.0593 -16.4227 16.6177 -43.4934 -15.3442 76.5923 2.0356 30.0434 -4.0234 -7.2558 -0.8984 0.9997 -0.1123 -8.0993 4.6683 
0.0000 93.1000 0.0000 70.3431 -25.5147 -6.2944 -71.0196 0.0193 88.0516 85.3516 71.1215 -0.9452 2.9782 18.2939 8.9027 -122.6136 34.6725 154.5528 171.7073 78.5542 -141.6467 0.0054 -13.8444 -22.1339 -63.6464 32.5255 -142.3304 23.5598 -6.0703 -101.2641 -0.3528 -0.0416 0.1420 -3.0664 5.8442 47.7990 -131.0712 2.6573 97.9594 20.6485 -5.7337 75.4184 0.2154 0.0553 0.2626 -44.2067 16.5433 97.3795 -4.7613 46.5270 -7.8883 -4.1028 -12.5714 -1.4629 5.0909 -13.4476 11.4611 -42.7749 -14.9655 76.0990 2.3617 32.1518 -1.7360 -6.9077 -1.2529 1.0628 -0.1453 -8.9608 2.2723 
0.0000 93.1000 0.0000 70.4703 -26.7246 -6.4247 -71.0333 0.0926 88.0444 85.8600 71.1459 -0.1237 3.0218 18.0929 9.1206 -120.8654 34.1563 153.8837 174.2681 78.2469 -142.7913 -0.3877 -14.0241 -21.9219 -63.6290 31.5979 -141.5177 24.3996 -6.1766 -101.1400 -0.3003 0.2745 -0.2692 -3.1292 6.0666 48.1520 -132.4508 4.1913 99.5722 20.0325 -6.6310 71.6406 -0.0609 0.4325 -0.2830 -44.7031 16.5765 97.3169 -3.5378 46.8451 -7.2659 -2.8165 -14.4049 -2.0124 4.0825 -11.0175 9.7236 -41.7651 -15.0388 75.1104 2.1608 34.0126 -0.2404 -7.5091 -2.3140 1.2892 -0.1052 -9.0260 2.6697 
